<svg width="22" height="22" viewBox="0 0 22 22" fill="none" xmlns="http://www.w3.org/2000/svg">
<path d="M11.3057 2.69336H21.8733V5.61209H15.0378V9.96627H20.4515V12.7756H15.031V19.1531H11.3057V2.69336Z" fill="#111111"/>
<path d="M4.92836 8.07949C4.92836 9.11164 4.92836 10.3694 3.50658 10.882C4.96253 11.381 4.92836 12.4405 4.92836 13.5478V17.6491C4.92836 18.4284 5.24279 18.9 5.80329 19.0162C5.92645 19.0578 6.05621 19.0763 6.18608 19.0709H7.55316V21.8051H5.29747C2.89139 21.8051 1.56532 20.438 1.56532 17.902V13.0489C1.54825 12.7997 1.43839 12.566 1.25743 12.3939C1.07646 12.2218 0.837545 12.1238 0.587848 12.1192H0V9.72H0.587848C0.842527 9.71664 1.08614 9.61536 1.26814 9.43718C1.45014 9.259 1.55656 9.01759 1.56532 8.76304V3.84152C1.56532 1.34658 2.86405 0 5.29747 0H7.57367V2.69316H6.20658C6.07656 2.69354 5.94739 2.7143 5.8238 2.75468C5.26329 2.89823 4.94886 3.36304 4.94886 4.12177L4.92836 8.07949Z" fill="#111111"/>
</svg>
