<svg width="125" height="20" viewBox="0 0 125 20" fill="none" xmlns="http://www.w3.org/2000/svg">
<path d="M9.97928 0L12.6458 6.81167L19.567 7.40122L14.2937 12.2006L15.9048 19.3766L9.97928 15.5312L4.05377 19.3766L5.66482 12.2006L0.391602 7.40122L7.3128 6.81167L9.97928 0Z" fill="#F24C27"/>
<path d="M35.949 0L38.6155 6.81167L45.5367 7.40122L40.2635 12.2006L41.8745 19.3766L35.949 15.5312L30.0235 19.3766L31.6346 12.2006L26.3613 7.40122L33.2825 6.81167L35.949 0Z" fill="#F24C27"/>
<path d="M62.4119 0L65.0784 6.81167L71.9996 7.40122L66.7263 12.2006L68.3374 19.3766L62.4119 15.5312L56.4864 19.3766L58.0974 12.2006L52.8242 7.40122L59.7454 6.81167L62.4119 0Z" fill="#F24C27"/>
<path d="M88.8748 0L91.5413 6.81167L98.4625 7.40122L93.1892 12.2006L94.8003 19.3766L88.8748 15.5312L82.9493 19.3766L84.5603 12.2006L79.2871 7.40122L86.2083 6.81167L88.8748 0Z" fill="#F24C27"/>
<path d="M115.338 0L118.004 6.81167L124.925 7.40122L119.652 12.2006L121.263 19.3766L115.338 15.5312L109.412 19.3766L111.023 12.2006L105.75 7.40122L112.671 6.81167L115.338 0Z" fill="#F24C27"/>
</svg>
